<?xml version="1.0" standalone="no"?>
<!DOCTYPE svg PUBLIC "-//W3C//DTD SVG 20010904//EN"
 "http://www.w3.org/TR/2001/REC-SVG-20010904/DTD/svg10.dtd">
<svg version="1.0" xmlns="http://www.w3.org/2000/svg"
 width="698.000000pt" height="452.000000pt" viewBox="0 0 698.000000 452.000000"
 preserveAspectRatio="xMidYMid meet">

<g transform="translate(0.000000,452.000000) scale(0.100000,-0.100000)"
fill="#000000" stroke="none">
<path d="M3950 2930 c-25 -5 -160 -47 -300 -94 -140 -47 -262 -86 -271 -86
-10 0 -39 11 -66 24 -116 58 -340 80 -418 41 -74 -37 -55 -112 40 -156 52 -24
106 -24 271 2 75 11 145 18 157 15 16 -4 229 -155 255 -181 5 -4 -143 -73
-174 -81 -13 -3 -62 10 -117 30 -77 29 -110 36 -167 36 -57 0 -74 -4 -91 -21
-37 -37 4 -102 75 -119 23 -6 72 -20 110 -32 59 -18 74 -19 118 -9 79 18 96
14 167 -37 142 -103 210 -135 308 -149 75 -10 105 44 56 100 -22 24 -63 22
-70 -3 -7 -25 -37 -26 -102 -1 -58 22 -190 107 -198 128 -9 22 15 39 91 67 87
33 109 32 230 -4 174 -52 290 -37 330 43 16 34 17 42 4 75 -8 22 -27 44 -48
57 -52 30 -175 27 -303 -8 -55 -15 -112 -27 -129 -27 -21 0 -67 24 -149 78
-65 42 -119 80 -119 83 0 8 476 164 544 179 47 10 86 6 86 -9 0 -17 50 -61 70
-61 27 0 27 43 1 69 -47 47 -116 65 -191 51z m-740 -162 c47 -15 75 -29 75
-38 0 -19 -144 -49 -237 -51 -147 -2 -218 80 -95 112 52 13 177 2 257 -23z
m920 -233 c37 -19 41 -62 9 -91 -32 -29 -179 -27 -276 4 -47 15 -73 28 -73 37
0 8 3 15 8 15 4 1 48 12 97 25 104 28 193 32 235 10z m-889 -106 c146 -34 136
-66 -21 -63 -89 2 -130 16 -130 43 0 20 24 40 49 41 7 0 53 -9 102 -21z"/>
<path d="M3530 1495 l0 -165 40 0 40 0 0 74 c0 84 14 109 59 104 26 -3 26 -4
29 -90 l3 -88 41 0 40 0 -4 95 c-4 87 -6 98 -31 122 -32 33 -86 36 -117 8 -20
-18 -20 -18 -20 43 l0 62 -40 0 -40 0 0 -165z"/>
<path d="M1473 1570 c-12 -5 -26 -17 -32 -27 -10 -16 -10 -16 -11 5 0 19 -5
22 -40 22 l-40 0 0 -120 0 -120 40 0 40 0 0 63 c0 70 18 98 73 111 23 5 27 11
27 41 0 37 -12 43 -57 25z"/>
<path d="M1633 1560 c-97 -49 -96 -173 4 -221 50 -24 114 -22 141 5 14 14 14
17 -2 35 -15 16 -22 17 -51 8 -28 -8 -39 -7 -62 9 l-28 19 88 3 87 3 0 40 c0
31 -7 47 -32 74 -43 45 -89 53 -145 25z m97 -65 c11 -13 5 -15 -40 -15 -45 0
-51 2 -40 15 7 8 25 15 40 15 15 0 33 -7 40 -15z"/>
<path d="M1930 1567 c-52 -18 -83 -70 -77 -130 5 -58 34 -93 90 -108 49 -13
88 -4 117 26 l22 23 -30 16 c-20 10 -33 12 -37 6 -10 -17 -61 -11 -78 8 -22
24 -21 65 1 85 20 19 67 23 77 7 4 -6 17 -4 36 6 25 13 28 18 18 30 -17 21
-64 44 -86 43 -10 0 -34 -5 -53 -12z"/>
<path d="M2521 1555 c-30 -26 -31 -26 -31 -6 0 17 -6 21 -35 21 l-35 0 0 -120
0 -120 35 0 35 0 0 58 c0 71 17 98 71 112 37 10 40 13 37 43 -4 42 -35 47 -77
12z"/>
<path d="M2695 1573 c-31 -8 -65 -44 -65 -70 0 -29 40 -68 86 -83 19 -7 33
-17 31 -23 -6 -18 -42 -20 -56 -3 -10 11 -19 12 -41 4 -25 -8 -28 -13 -20 -29
13 -24 61 -49 95 -49 39 0 84 27 91 55 13 54 -5 78 -78 105 -16 5 -28 16 -28
25 0 17 25 21 35 5 7 -12 35 -13 53 -2 18 12 4 40 -29 57 -29 15 -39 16 -74 8z"/>
<path d="M2943 1569 c-51 -15 -83 -62 -83 -121 0 -43 4 -54 33 -83 43 -43 94
-54 147 -30 147 66 58 281 -97 234z m78 -69 c14 -8 19 -21 19 -50 0 -29 -5
-42 -19 -50 -45 -23 -91 2 -91 51 0 49 45 73 91 49z"/>
<path d="M3215 1573 c-34 -9 -55 -35 -55 -68 0 -36 19 -57 73 -80 20 -8 37
-20 37 -25 0 -19 -31 -23 -49 -6 -14 13 -24 14 -45 7 -29 -12 -31 -18 -13 -42
32 -42 93 -50 144 -19 65 39 50 104 -32 135 -25 10 -45 21 -45 26 0 15 19 20
38 8 13 -8 28 -9 47 -2 l28 9 -24 27 c-24 27 -67 40 -104 30z"/>
<path d="M4240 1573 c-8 -3 -23 -12 -32 -21 -16 -14 -18 -13 -18 1 0 13 -9 17
-35 17 l-35 0 0 -120 0 -120 35 0 35 0 0 73 c0 79 15 107 56 107 35 0 44 -20
44 -102 l0 -78 40 0 40 0 0 73 c0 79 15 107 56 107 35 0 44 -20 44 -102 l0
-78 40 0 40 0 0 78 c0 128 -48 188 -130 163 -21 -6 -43 -17 -49 -25 -10 -12
-18 -11 -48 10 -35 24 -54 28 -83 17z"/>
<path d="M4664 1566 c-68 -30 -95 -116 -59 -185 19 -37 77 -65 119 -57 17 4
52 6 79 6 l47 -1 0 121 0 121 -52 -1 c-29 -1 -64 1 -78 4 -14 3 -39 0 -56 -8z
m106 -88 c13 -25 13 -31 0 -55 -30 -53 -110 -34 -110 25 0 63 79 84 110 30z"/>
<path d="M5008 1561 c-30 -15 -38 -16 -38 -5 0 9 -12 14 -35 14 l-35 0 0 -120
0 -120 35 0 35 0 0 68 c0 80 17 112 59 112 36 0 41 -13 41 -106 l0 -74 35 0
35 0 0 94 c0 84 -3 98 -22 120 -32 35 -66 40 -110 17z"/>
<path d="M5261 1563 c-50 -26 -76 -66 -75 -117 1 -54 24 -89 74 -111 53 -24
104 -13 147 30 27 27 33 40 33 77 0 23 -6 54 -13 67 -29 58 -109 84 -166 54z
m93 -69 c21 -20 20 -63 -1 -86 -18 -20 -45 -23 -74 -8 -26 14 -27 84 -1 99 25
15 58 13 76 -5z"/>
<path d="M5543 1573 c-24 -5 -63 -47 -63 -68 0 -24 43 -66 82 -82 21 -8 37
-21 35 -27 -6 -18 -40 -19 -53 -2 -9 13 -17 14 -38 6 -35 -13 -33 -36 7 -60
39 -24 78 -25 118 -5 67 35 56 108 -21 136 -25 9 -46 24 -48 33 -4 17 23 22
33 6 7 -12 35 -13 53 -2 18 12 4 40 -29 57 -28 15 -36 16 -76 8z"/>
<path d="M2120 1490 c0 -108 16 -145 70 -161 37 -11 43 -10 70 10 24 17 30 19
30 6 0 -11 11 -15 40 -15 l40 0 0 120 0 120 -40 0 -40 0 0 -73 c0 -82 -17
-112 -62 -105 -22 3 -23 7 -26 91 l-3 87 -39 0 -40 0 0 -80z"/>
<path d="M3820 1490 c0 -108 16 -145 70 -161 37 -11 43 -10 70 10 24 17 30 19
30 6 0 -11 11 -15 40 -15 l40 0 0 120 0 120 -40 0 -40 0 0 -73 c0 -82 -17
-112 -62 -105 -22 3 -23 7 -26 91 l-3 87 -39 0 -40 0 0 -80z"/>
</g>
</svg>
